<?xml version="1.0" standalone="no"?><!DOCTYPE svg PUBLIC "-//W3C//DTD SVG 1.1//EN" "http://www.w3.org/Graphics/SVG/1.1/DTD/svg11.dtd"><svg t="1712892125364" class="icon" viewBox="0 0 1024 1024" version="1.1" xmlns="http://www.w3.org/2000/svg" p-id="8919" width="48" height="48" xmlns:xlink="http://www.w3.org/1999/xlink"><path d="M350.328836 107.825831h323.289437a53.944008 53.944008 0 1 0 0-107.763146H350.328836a53.944008 53.944008 0 1 0 0 107.763146z" p-id="8920"></path><path d="M889.269435 54.006693h-107.763145V114.194221A53.944008 53.944008 0 0 1 727.562281 162.394191H290.141309A53.944008 53.944008 0 0 1 243.190042 107.825831V54.006693H134.802545A53.819138 53.819138 0 0 0 80.858537 107.825831v862.230036A53.819138 53.819138 0 0 0 134.802545 1023.999875h754.46689a53.819138 53.819138 0 0 0 53.819138-53.944008V107.825831a53.819138 53.819138 0 0 0-53.819138-53.819138zM631.162341 718.566904a163.330469 163.330469 0 0 1-89.90668 44.828469 367.243814 367.243814 0 0 1-139.230484-10.863724 394.590429 394.590429 0 0 1 19.854392 94.526885l-41.332099 4.869945a326.910679 326.910679 0 0 0-30.343504-114.256406 1119.088427 1119.088427 0 0 1-117.003555-45.827433l18.106207-38.210339c153.091097 69.053325 239.626277 74.922233 285.328839 68.304103a105.140868 105.140868 0 0 0 15.359057-3.3715L404.147974 571.094974l23.225892-23.225892 149.844467 149.844467-19.979262 19.979262a121.124277 121.124277 0 0 0 45.577692-27.970967c31.092727-30.593245 63.683898-85.785957 41.83158-174.818545l40.832617-11.113465c27.221745 113.382313-22.226929 183.05999-54.318619 214.77707zM415.88579 476.56809l23.101022-23.101022 149.844467 149.220114-23.225892 23.225893z m320.042808 28.220707c-80.791142-36.087542-184.308694-75.796326-269.969782-62.435194A119.625833 119.625833 0 0 0 399.902381 474.570163c-31.092727 30.718116-63.559028 85.910828-41.831581 174.818545l-40.707747 11.113465c-27.970967-113.881795 21.602577-183.809213 53.569397-215.276551a163.70508 163.70508 0 0 1 89.90668-44.82847 355.131386 355.131386 0 0 1 134.360539 8.990668 363.622573 363.622573 0 0 1-25.7233-80.666271l41.207228-8.491187A390.095095 390.095095 0 0 0 649.518288 424.622008q53.194786 18.106206 104.391646 41.332098z" p-id="8921" data-spm-anchor-id="a313x.search_index.0.i1.15da3a81JAS9n8"></path></svg>